<svg width="38" height="40" viewBox="0 0 38 40" fill="none" xmlns="http://www.w3.org/2000/svg">
<g id="Logo">
<g id="Group 3">
<mask id="mask0_0_507" style="mask-type:luminance" maskUnits="userSpaceOnUse" x="0" y="0" width="38" height="39">
<path id="Clip 2" fill-rule="evenodd" clip-rule="evenodd" d="M0 0.849854H37.541V38.3915H0V0.849854Z" fill="white"/>
</mask>
<g mask="url(#mask0_0_507)">
<path id="Fill 1" fill-rule="evenodd" clip-rule="evenodd" d="M32.1742 24.5553C32.1742 26.9013 30.3442 28.5239 28.0253 28.5239C25.6802 28.5239 23.851 26.9013 23.851 24.5553V14.6596C23.851 12.3153 25.6802 10.7173 28.0253 10.7173C30.3442 10.7173 32.1742 12.3153 32.1742 14.6596V24.5553ZM22.5156 28.1882H20.6082L20.2742 27.0296C19.8092 27.9825 18.83 28.5239 17.8517 28.5239C15.6094 28.5239 14.1916 26.9013 14.1916 24.6581V14.5567C14.1916 12.5218 15.8933 10.7173 18.3405 10.7173C20.7885 10.7173 22.3864 12.5218 22.3864 14.5567V17.3915H19.2687V14.5057C19.2687 14.0161 18.9592 13.7067 18.3923 13.7067C17.8517 13.7067 17.5415 14.0161 17.5415 14.5057V24.7865C17.5415 25.2769 17.8772 25.6365 18.4178 25.6365C18.9848 25.6365 19.3196 25.2769 19.3196 24.7865V21.9789H18.4433V19.6584H22.5156V28.1882ZM13.0815 13.9388H9.537V18.0358H11.9595V20.715H9.537V25.1741H13.0815V28.1882H6.23815V11.0267H13.0815V13.9388ZM18.7705 0.849609C8.4031 0.849609 0 9.25441 0 19.621C0 29.9876 8.4031 38.3916 18.7705 38.3916C29.138 38.3916 37.5411 29.9876 37.5411 19.621C37.5411 9.25441 29.138 0.849609 18.7705 0.849609Z" fill="#12110F"/>
</g>
</g>
<path id="Fill 4" fill-rule="evenodd" clip-rule="evenodd" d="M28.025 13.707C27.5872 13.707 27.2268 13.9901 27.2268 14.4542V24.7613C27.2268 25.2254 27.5872 25.5084 28.025 25.5084C28.4636 25.5084 28.7985 25.2254 28.7985 24.7613V14.4542C28.7985 13.9901 28.4636 13.707 28.025 13.707Z" fill="#12110F"/>
</g>
</svg>
